REM DIRINDEX 1\2\4,1\2\5,1\2\6,1\2\7,1\3\8,1\3\9
REM DIRNAME cjc037,folder01,folder02,folder03,folder04,folder05,folder06,folder07,folder08
TITLE ""
FILE "Disc1Track06.mp3" MP3
  TRACK 01 AUDIO
    TITLE "0:"
    INDEX 01 00:00:00
  TRACK 02 AUDIO
    TITLE "4:cjc037_0306"
    INDEX 01 00:00:05
  TRACK 03 AUDIO
    TITLE "0:"
    INDEX 01 00:01:38
  TRACK 04 AUDIO
    TITLE "4:cjc037_0307"
    INDEX 01 00:02:38
  TRACK 05 AUDIO
    TITLE "0:"
    INDEX 01 00:04:03
  TRACK 06 AUDIO
    TITLE "5:cjc037_0308"
    INDEX 01 00:04:54
  TRACK 07 AUDIO
    TITLE "0:"
    INDEX 01 00:09:12
  TRACK 08 AUDIO
    TITLE "6:cjc037_0309"
    INDEX 01 00:12:44
  TRACK 09 AUDIO
    TITLE "0:"
    INDEX 01 00:15:64
  TRACK 10 AUDIO
    TITLE "7:cjc037_0310"
    INDEX 01 00:19:22
  TRACK 11 AUDIO
    TITLE "0:"
    INDEX 01 00:21:60
  TRACK 12 AUDIO
    TITLE "4:cjc037_0311"
    INDEX 01 00:24:16
  TRACK 13 AUDIO
    TITLE "0:"
    INDEX 01 00:25:52
  TRACK 14 AUDIO
    TITLE "5:cjc037_0312"
    INDEX 01 00:26:28
  TRACK 15 AUDIO
    TITLE "0:"
    INDEX 01 00:29:58
  TRACK 16 AUDIO
    TITLE "6:cjc037_0313"
    INDEX 01 00:33:19
  TRACK 17 AUDIO
    TITLE "0:"
    INDEX 01 00:35:57
  TRACK 18 AUDIO
    TITLE "7:cjc037_0314"
    INDEX 01 00:39:23
  TRACK 19 AUDIO
    TITLE "0:"
    INDEX 01 00:41:28
  TRACK 20 AUDIO
    TITLE "4:cjc037_0315"
    INDEX 01 00:43:62
  TRACK 21 AUDIO
    TITLE "0:"
    INDEX 01 00:45:33
  TRACK 22 AUDIO
    TITLE "5:cjc037_0316"
    INDEX 01 00:46:09
  TRACK 23 AUDIO
    TITLE "0:"
    INDEX 01 00:48:34
  TRACK 24 AUDIO
    TITLE "6:cjc037_0317"
    INDEX 01 00:51:69
  TRACK 25 AUDIO
    TITLE "0:"
    INDEX 01 00:54:07
  TRACK 26 AUDIO
    TITLE "7:cjc037_0318"
    INDEX 01 00:57:43
  TRACK 27 AUDIO
    TITLE "0:"
    INDEX 01 00:59:22
  TRACK 28 AUDIO
    TITLE "4:cjc037_0319"
    INDEX 01 01:01:58
  TRACK 29 AUDIO
    TITLE "0:"
    INDEX 01 01:03:22
  TRACK 30 AUDIO
    TITLE "5:cjc037_0320"
    INDEX 01 01:04:01
  TRACK 31 AUDIO
    TITLE "0:"
    INDEX 01 01:06:34
  TRACK 32 AUDIO
    TITLE "6:cjc037_0321"
    INDEX 01 01:09:69
  TRACK 33 AUDIO
    TITLE "0:"
    INDEX 01 01:12:36
  TRACK 34 AUDIO
    TITLE "7:cjc037_0322"
    INDEX 01 01:15:70
  TRACK 35 AUDIO
    TITLE "0:"
    INDEX 01 01:17:67
  TRACK 36 AUDIO
    TITLE "4:cjc037_0323"
    INDEX 01 01:20:26
  TRACK 37 AUDIO
    TITLE "0:"
    INDEX 01 01:21:43
  TRACK 38 AUDIO
    TITLE "5:cjc037_0324"
    INDEX 01 01:22:19
  TRACK 39 AUDIO
    TITLE "0:"
    INDEX 01 01:26:58
  TRACK 40 AUDIO
    TITLE "6:cjc037_0325"
    INDEX 01 01:30:22
  TRACK 41 AUDIO
    TITLE "0:"
    INDEX 01 01:33:15
  TRACK 42 AUDIO
    TITLE "7:cjc037_0326"
    INDEX 01 01:36:50
  TRACK 43 AUDIO
    TITLE "0:"
    INDEX 01 01:39:10
  TRACK 44 AUDIO
    TITLE "4:cjc037_0327"
    INDEX 01 01:41:46
  TRACK 45 AUDIO
    TITLE "0:"
    INDEX 01 01:43:13
  TRACK 46 AUDIO
    TITLE "5:cjc037_0328"
    INDEX 01 01:43:64
  TRACK 47 AUDIO
    TITLE "0:"
    INDEX 01 01:47:15
  TRACK 48 AUDIO
    TITLE "6:cjc037_0329"
    INDEX 01 01:50:51
  TRACK 49 AUDIO
    TITLE "0:"
    INDEX 01 01:54:13
  TRACK 50 AUDIO
    TITLE "7:cjc037_0330"
    INDEX 01 01:57:47
  TRACK 51 AUDIO
    TITLE "0:"
    INDEX 01 02:00:33
  TRACK 52 AUDIO
    TITLE "4:cjc037_0331"
    INDEX 01 02:02:67
  TRACK 53 AUDIO
    TITLE "0:"
    INDEX 01 02:04:27
  TRACK 54 AUDIO
    TITLE "5:cjc037_0332"
    INDEX 01 02:05:03
  TRACK 55 AUDIO
    TITLE "0:"
    INDEX 01 02:08:72
  TRACK 56 AUDIO
    TITLE "6:cjc037_0333"
    INDEX 01 02:12:35
  TRACK 57 AUDIO
    TITLE "0:"
    INDEX 01 02:15:07
  TRACK 58 AUDIO
    TITLE "7:cjc037_0334"
    INDEX 01 02:18:43
  TRACK 59 AUDIO
    TITLE "0:"
    INDEX 01 02:20:58
  TRACK 60 AUDIO
    TITLE "4:cjc037_0335"
    INDEX 01 02:23:19
  TRACK 61 AUDIO
    TITLE "0:"
    INDEX 01 02:24:63
  TRACK 62 AUDIO
    TITLE "5:cjc037_0336"
    INDEX 01 02:25:35
  TRACK 63 AUDIO
    TITLE "0:"
    INDEX 01 02:29:43
  TRACK 64 AUDIO
    TITLE "6:cjc037_0337"
    INDEX 01 02:33:03
  TRACK 65 AUDIO
    TITLE "0:"
    INDEX 01 02:35:61
  TRACK 66 AUDIO
    TITLE "7:cjc037_0338"
    INDEX 01 02:39:24
  TRACK 67 AUDIO
    TITLE "0:"
    INDEX 01 02:41:52
  TRACK 68 AUDIO
    TITLE "4:cjc037_0339"
    INDEX 01 02:44:11
  TRACK 69 AUDIO
    TITLE "0:"
    INDEX 01 02:45:59
  TRACK 70 AUDIO
    TITLE "5:cjc037_0340"
    INDEX 01 02:46:31
  TRACK 71 AUDIO
    TITLE "0:"
    INDEX 01 02:51:60
  TRACK 72 AUDIO
    TITLE "6:cjc037_0341"
    INDEX 01 02:55:21
  TRACK 73 AUDIO
    TITLE "0:"
    INDEX 01 03:00:10
  TRACK 74 AUDIO
    TITLE "7:cjc037_0342"
    INDEX 01 03:03:46
  TRACK 75 AUDIO
    TITLE "0:"
    INDEX 01 03:07:51
  TRACK 76 AUDIO
    TITLE "4:cjc037_0343"
    INDEX 01 03:10:10
  TRACK 77 AUDIO
    TITLE "0:"
    INDEX 01 03:11:45
  TRACK 78 AUDIO
    TITLE "5:cjc037_0344"
    INDEX 01 03:12:21
  TRACK 79 AUDIO
    TITLE "0:"
    INDEX 01 03:17:10
  TRACK 80 AUDIO
    TITLE "6:cjc037_0345"
    INDEX 01 03:20:44
  TRACK 81 AUDIO
    TITLE "0:"
    INDEX 01 03:24:34
  TRACK 82 AUDIO
    TITLE "7:cjc037_0346"
    INDEX 01 03:27:72
  TRACK 83 AUDIO
    TITLE "0:"
    INDEX 01 03:31:01
  TRACK 84 AUDIO
    TITLE "4:cjc037_0347"
    INDEX 01 03:33:33
  TRACK 85 AUDIO
    TITLE "0:"
    INDEX 01 03:35:06
  TRACK 86 AUDIO
    TITLE "5:cjc037_0348"
    INDEX 01 03:35:53
  TRACK 87 AUDIO
    TITLE "0:"
    INDEX 01 03:39:73
  TRACK 88 AUDIO
    TITLE "6:cjc037_0349"
    INDEX 01 03:43:33
  TRACK 89 AUDIO
    TITLE "0:"
    INDEX 01 03:48:07
  TRACK 90 AUDIO
    TITLE "7:cjc037_0350"
    INDEX 01 03:51:43
  TRACK 91 AUDIO
    TITLE "0:"
    INDEX 01 03:55:03
  TRACK 92 AUDIO
    TITLE "4:cjc037_0351"
    INDEX 01 03:57:37
  TRACK 93 AUDIO
    TITLE "0:"
    INDEX 01 03:59:03
  TRACK 94 AUDIO
    TITLE "5:cjc037_0352"
    INDEX 01 03:59:56
  TRACK 95 AUDIO
    TITLE "0:"
    INDEX 01 04:02:60
  TRACK 96 AUDIO
    TITLE "6:cjc037_0353"
    INDEX 01 04:06:19
  TRACK 97 AUDIO
    TITLE "0:"
    INDEX 01 04:08:43
  TRACK 98 AUDIO
    TITLE "7:cjc037_0354"
    INDEX 01 04:12:04
  TRACK 99 AUDIO
    TITLE "0:"
    INDEX 01 04:13:70
  TRACK 100 AUDIO
    TITLE "4:cjc037_0355"
    INDEX 01 04:16:27
  TRACK 101 AUDIO
    TITLE "0:"
    INDEX 01 04:18:00
  TRACK 102 AUDIO
    TITLE "5:cjc037_0356"
    INDEX 01 04:18:55
  TRACK 103 AUDIO
    TITLE "0:"
    INDEX 01 04:24:09
  TRACK 104 AUDIO
    TITLE "6:cjc037_0357"
    INDEX 01 04:27:44
  TRACK 105 AUDIO
    TITLE "0:"
    INDEX 01 04:31:46
  TRACK 106 AUDIO
    TITLE "7:cjc037_0358"
    INDEX 01 04:35:07
  TRACK 107 AUDIO
    TITLE "0:"
    INDEX 01 04:38:25
  TRACK 108 AUDIO
    TITLE "4:cjc037_0359"
    INDEX 01 04:40:57
  TRACK 109 AUDIO
    TITLE "0:"
    INDEX 01 04:42:30
  TRACK 110 AUDIO
    TITLE "5:cjc037_0360"
    INDEX 01 04:43:04
  TRACK 111 AUDIO
    TITLE "0:"
    INDEX 01 04:46:22
  TRACK 112 AUDIO
    TITLE "6:cjc037_0361"
    INDEX 01 04:49:56
  TRACK 113 AUDIO
    TITLE "0:"
    INDEX 01 04:52:58
  TRACK 114 AUDIO
    TITLE "7:cjc037_0362"
    INDEX 01 04:56:17
  TRACK 115 AUDIO
    TITLE "0:"
    INDEX 01 04:58:45
  TRACK 116 AUDIO
    TITLE "4:cjc037_0363"
    INDEX 01 05:01:06
  TRACK 117 AUDIO
    TITLE "0:"
    INDEX 01 05:02:23
  TRACK 118 AUDIO
    TITLE "5:cjc037_0364"
    INDEX 01 05:02:72
  TRACK 119 AUDIO
    TITLE "0:"
    INDEX 01 05:07:58
  TRACK 120 AUDIO
    TITLE "6:cjc037_0365"
    INDEX 01 05:11:16
  TRACK 121 AUDIO
    TITLE "0:"
    INDEX 01 05:15:16
  TRACK 122 AUDIO
    TITLE "7:cjc037_0366"
    INDEX 01 05:18:52
  TRACK 123 AUDIO
    TITLE "0:"
    INDEX 01 05:22:00
  TRACK 124 AUDIO
    TITLE "4:cjc037_0367"
    INDEX 01 05:24:35
  TRACK 125 AUDIO
    TITLE "0:"
    INDEX 01 05:26:00
  TRACK 126 AUDIO
    TITLE "5:cjc037_0368"
    INDEX 01 05:26:53
  TRACK 127 AUDIO
    TITLE "0:"
    INDEX 01 05:31:27
  TRACK 128 AUDIO
    TITLE "6:cjc037_0369"
    INDEX 01 05:34:62
  TRACK 129 AUDIO
    TITLE "0:"
    INDEX 01 05:38:42
  TRACK 130 AUDIO
    TITLE "7:cjc037_0370"
    INDEX 01 05:42:01
  TRACK 131 AUDIO
    TITLE "0:"
    INDEX 01 05:44:69
  TRACK 132 AUDIO
    TITLE "4:cjc037_0371"
    INDEX 01 05:47:28
  TRACK 133 AUDIO
    TITLE "0:"
    INDEX 01 05:48:59
  TRACK 134 AUDIO
    TITLE "5:cjc037_0372"
    INDEX 01 05:49:38
  TRACK 135 AUDIO
    TITLE "0:"
    INDEX 01 05:53:15
  TRACK 136 AUDIO
    TITLE "6:cjc037_0373"
    INDEX 01 05:56:48
  TRACK 137 AUDIO
    TITLE "0:"
    INDEX 01 05:59:45
  TRACK 138 AUDIO
    TITLE "7:cjc037_0374"
    INDEX 01 06:03:03
  TRACK 139 AUDIO
    TITLE "0:"
    INDEX 01 06:05:33
  TRACK 140 AUDIO
    TITLE "4:cjc037_0375"
    INDEX 01 06:07:66
  TRACK 141 AUDIO
    TITLE "0:"
    INDEX 01 06:09:37
  TRACK 142 AUDIO
    TITLE "5:cjc037_0376"
    INDEX 01 06:10:09
  TRACK 143 AUDIO
    TITLE "0:"
    INDEX 01 06:16:22
  TRACK 144 AUDIO
    TITLE "6:cjc037_0377"
    INDEX 01 06:19:55
  TRACK 145 AUDIO
    TITLE "0:"
    INDEX 01 06:24:13
  TRACK 146 AUDIO
    TITLE "7:cjc037_0378"
    INDEX 01 06:27:47
  TRACK 147 AUDIO
    TITLE "0:"
    INDEX 01 06:31:17
  TRACK 148 AUDIO
    TITLE "4:cjc037_0379"
    INDEX 01 06:33:51
  TRACK 149 AUDIO
    TITLE "0:"
    INDEX 01 06:35:11
  TRACK 150 AUDIO
    TITLE "5:cjc037_0380"
    INDEX 01 06:35:60
  TRACK 151 AUDIO
    TITLE "0:"
    INDEX 01 06:42:13
  TRACK 152 AUDIO
    TITLE "6:cjc037_0381"
    INDEX 01 06:45:51
  TRACK 153 AUDIO
    TITLE "0:"
    INDEX 01 06:51:59
  TRACK 154 AUDIO
    TITLE "7:cjc037_0382"
    INDEX 01 06:55:18
  TRACK 155 AUDIO
    TITLE "0:"
    INDEX 01 07:00:21
  TRACK 156 AUDIO
    TITLE "4:cjc037_0383"
    INDEX 01 07:02:57
  TRACK 157 AUDIO
    TITLE "0:"
    INDEX 01 07:04:07
  TRACK 158 AUDIO
    TITLE "5:cjc037_0384"
    INDEX 01 07:04:60
  TRACK 159 AUDIO
    TITLE "0:"
    INDEX 01 07:09:55
  TRACK 160 AUDIO
    TITLE "6:cjc037_0385"
    INDEX 01 07:13:18
  TRACK 161 AUDIO
    TITLE "0:"
    INDEX 01 07:16:63
  TRACK 162 AUDIO
    TITLE "7:cjc037_0386"
    INDEX 01 07:20:24
  TRACK 163 AUDIO
    TITLE "0:"
    INDEX 01 07:23:04
  TRACK 164 AUDIO
    TITLE "4:cjc037_0387"
    INDEX 01 07:25:38
  TRACK 165 AUDIO
    TITLE "0:"
    INDEX 01 07:26:73
  TRACK 166 AUDIO
    TITLE "5:cjc037_0388"
    INDEX 01 07:27:49
  TRACK 167 AUDIO
    TITLE "0:"
    INDEX 01 07:30:28
  TRACK 168 AUDIO
    TITLE "6:cjc037_0389"
    INDEX 01 07:34:04
  TRACK 169 AUDIO
    TITLE "0:"
    INDEX 01 07:36:54
  TRACK 170 AUDIO
    TITLE "7:cjc037_0390"
    INDEX 01 07:40:14
  TRACK 171 AUDIO
    TITLE "0:"
    INDEX 01 07:42:31
